<svg xmlns="http://www.w3.org/2000/svg" viewBox="0 0 1200 1200"><path fill="#B6E900" d="m1032 268 3.017.602c33.352 6.9 64.255 20.142 90.983 41.398l2.824 2.129L1131 314v2l-3.05-.77c-4.635-1.147-9.29-2.194-13.95-3.23l-2.074-.484c-24.713-5.599-53.442-4.393-77.926 1.484l-3.025.715c-58.033 14.124-110.472 49.066-154.255 88.861C875 404 875 404 873.189 404.992c-2.357 1.455-3.646 2.686-5.189 5.008-1.087 5.577-.94 11.117-.88 16.78-.007 1.75-.017 3.5-.03 5.25-.027 4.81-.01 9.618.013 14.428.018 5.186-.005 10.372-.022 15.558a5640.31 5640.31 0 0 0-.006 26.956c.026 12.992.013 25.983-.009 38.974-.034 21.077-.038 42.155-.021 63.232a36544.095 36544.095 0 0 1-.006 65.25l-.018 18.992c-.052 52.527-.047 105.053-.021 157.58H718l-1-248-13 19-5.256 7.662A1810.13 1810.13 0 0 0 656 677l-1.808 2.896c-9.638 15.48-18.978 31.112-28.144 46.874-2.232 3.837-4.48 7.663-6.74 11.484-7.879 13.353-15.322 26.901-22.613 40.583-3.19 5.952-6.444 11.87-9.701 17.785-3.14 5.725-6.113 11.518-8.994 17.378h-2a163.64 163.64 0 0 1-5.313-7.375c-1.09-1.575-2.183-3.15-3.277-4.723l-1.71-2.469c-2.644-3.784-5.36-7.513-8.075-11.245-5.211-7.184-10.315-14.439-15.39-21.72-4.429-6.343-8.937-12.625-13.479-18.888-6.162-8.503-12.196-17.094-18.235-25.684a2278.637 2278.637 0 0 0-18.665-26.165c-4.16-5.749-8.26-11.538-12.34-17.343-3.59-5.097-7.23-10.155-10.891-15.2-5.22-7.2-10.35-14.461-15.43-21.761C448.19 634.239 443.094 627.13 438 620l-1 213H285V403h26c4.899-.039 9.796-.083 14.695-.146a3978.65 3978.65 0 0 1 37.668-.24c7.54-.017 15.079-.063 22.618-.173 6.658-.097 13.314-.14 19.973-.121 3.5.008 6.997-.01 10.496-.091 22.747-.507 22.747-.507 28.86 5.057 2.718 3.067 4.821 6.336 6.73 9.953 1.292 2.371 2.913 4.406 4.624 6.488.989 1.298 1.976 2.597 2.961 3.898l3.293 4.324 1.587 2.088c6.05 7.946 12.17 15.835 18.308 23.713 6.284 8.068 12.503 16.183 18.707 24.313 3.813 4.99 7.649 9.962 11.48 14.937a31120.602 31120.602 0 0 1 12.36 16.074 3341.072 3341.072 0 0 0 14.452 18.676 2794.192 2794.192 0 0 1 17.145 22.266c2.816 3.69 5.646 7.37 8.48 11.047 3.558 4.619 7.08 9.262 10.563 13.937 5.962-7.993 11.776-16.061 17.375-24.313 10.774-15.846 22.176-31.176 33.848-46.37 1.524-1.988 3.043-3.979 4.558-5.973 6.08-7.975 12.375-15.76 18.726-23.52a1959.43 1959.43 0 0 0 3.934-4.828c7.955-9.776 16.047-19.417 24.524-28.746 1.809-2 3.584-4.023 5.347-6.063 7.022-8.05 14.287-15.88 21.903-23.37 1.804-1.837 3.485-3.738 5.16-5.692 6.023-6.984 12.625-13.358 19.629-19.348 2.257-2.01 4.373-4.125 6.496-6.277 4.007-4.048 8.166-7.807 12.5-11.5l3.227-2.785C782.434 345.017 813.243 322.708 847 304l2.366-1.324C883.438 283.694 921.262 270.838 960 266l2.097-.286c22.603-2.718 47.62-2.172 69.903 2.286Z"/><path fill="#454545" d="m866 409 2 1-1 423H718c-.645-62.393-.645-62.393-.781-88.553-.032-5.986-.064-11.973-.098-17.96l-.013-2.273c-.07-12.07-.195-24.14-.342-36.209-.15-12.41-.24-24.821-.271-37.233-.022-7.643-.09-15.283-.222-22.926-.095-5.886-.104-11.77-.083-17.658a299.112 299.112 0 0 0-.097-7.186c-.438-17.809 3.965-27.593 15.922-40.758 3.019-3.412 5.682-7.063 8.36-10.744a1573.39 1573.39 0 0 1 2.902-3.875l1.387-1.848a779.367 779.367 0 0 1 19.44-24.754 798.655 798.655 0 0 0 10.646-13.336c6.864-8.775 13.943-17.358 21.16-25.845a584.619 584.619 0 0 0 8.715-10.53c3.626-4.454 7.4-8.741 11.266-12.988a355.297 355.297 0 0 0 5.484-6.199c27.95-31.943 27.95-31.943 44.625-43.125Z"/><path fill="#4B4B4B" d="M285 404c2.78 2.78 4.717 4.83 6.813 7.984l1.55 2.31L295 416.75c4.21 6.242 8.504 12.382 13.063 18.375 4.589 6.038 9.014 12.17 13.367 18.38A1210.622 1210.622 0 0 0 332.5 469a1511.824 1511.824 0 0 1 12.5 17.5c5.714 8.122 11.52 16.175 17.346 24.216 2.783 3.843 5.563 7.688 8.341 11.534l1.649 2.281a2940.394 2940.394 0 0 1 10.86 15.148c3.371 4.727 6.774 9.43 10.179 14.134 4.749 6.561 9.441 13.16 14.1 19.785 3.68 5.224 7.404 10.413 11.15 15.59l1.636 2.262c2.083 2.88 4.166 5.76 6.251 8.637 1.395 1.928 2.786 3.857 4.175 5.788l1.243 1.712c4.293 5.977 5.362 9.736 5.31 17.132l.006 2.696c.003 2.986-.008 5.973-.019 8.959v6.416c.002 5.811-.01 11.623-.024 17.434-.013 6.071-.014 12.143-.016 18.214-.006 11.5-.023 22.999-.043 34.498-.026 15.537-.037 31.075-.049 46.612-.019 24.484-.059 48.968-.095 73.452H285V404Z"/><path fill="#333332" d="M288 409c4.307 4.03 7.66 8.444 11.063 13.25l1.716 2.4c4.26 5.966 8.483 11.96 12.702 17.955 5.224 7.417 10.542 14.765 15.865 22.111 2.783 3.843 5.563 7.688 8.341 11.534l1.649 2.281a2940.394 2940.394 0 0 1 10.86 15.148c3.371 4.727 6.774 9.43 10.179 14.134A1605.37 1605.37 0 0 1 373 525.5c5.714 8.122 11.52 16.175 17.346 24.216 2.783 3.843 5.563 7.688 8.341 11.534l1.649 2.281a2932.23 2932.23 0 0 1 10.85 15.133c4 5.61 8.04 11.192 12.085 16.77a273.543 273.543 0 0 1 3.01 4.238c1.647 2.332 1.647 2.332 3.536 4.236 7.298 8.352 6.072 17.875 5.867 28.319a1889.78 1889.78 0 0 0-.03 5.876c-.027 5.126-.096 10.251-.173 15.377-.072 5.242-.104 10.485-.14 15.727A4337.054 4337.054 0 0 1 435 700c-2.558-3.323-4.495-6.677-6.414-10.414l-.99-1.923a2459.11 2459.11 0 0 1-3.221-6.288l-2.268-4.418a2925.35 2925.35 0 0 1-18.045-35.87c-3.055-6.156-6.149-12.285-9.374-18.355-6.382-12.012-12.47-24.166-18.54-36.337l-3.33-6.665c-2.895-5.794-5.788-11.59-8.68-17.385-2.93-5.87-5.862-11.74-8.794-17.609a89092.017 89092.017 0 0 1-20.672-41.401c-3.46-6.932-6.935-13.854-10.485-20.741l-2.547-4.958-1.306-2.541c-7.888-15.345-15.703-30.722-23.36-46.183-3.524-7.142-3.524-7.142-7.408-14.092C288 412 288 412 288 409Z"/></svg>